<?xml version="1.0" standalone="no"?>
<!DOCTYPE svg PUBLIC "-//W3C//DTD SVG 1.1//EN" "http://www.w3.org/Graphics/SVG/1.1/DTD/svg11.dtd">
<svg xmlns="http://www.w3.org/2000/svg" xmlns:xlink="http://www.w3.org/1999/xlink" xmlns:xodm="http://www.corel.com/coreldraw/odm/2003" xml:space="preserve" version="1.1" style="shape-rendering:geometricPrecision; text-rendering:geometricPrecision; image-rendering:optimizeQuality; fill-rule:evenodd; clip-rule:evenodd" viewBox="0 0 15269.7 3412.47" width="15269.7001953125" height="3412.469970703125">
 <defs>
  <style type="text/css">
   <![CDATA[
    .fil1 {fill:#F3EAFF}
    .fil0 {fill:#F3EAFF;fill-rule:nonzero}
   ]]>
  </style>
 </defs>
 <g id="Capa_x0020_1">
  <metadata id="CorelCorpID_0Corel-Layer"/>
  <g id="_2650439140416">
   <g>
    <g>
     <path class="fil0" d="M4545.28 3055.14l2012.7 0 0 -773.29c-52.26,344.03 -343.42,594.12 -690.53,594.12l-135.18 0 0 -2033.68c0,-182.9 119.45,-347.76 294.88,-400.02l-454.36 0 -1027.51 0c175.43,52.26 294.88,217.12 294.88,400.02l0 1813.45c0,182.9 -119.45,347.13 -294.88,399.4z"/>
     <path class="fil0" d="M6502.84 3055.14l1481.86 0c-175.42,-52.26 -294.87,-217.12 -294.87,-400.02l0 -1812.83c0,-182.9 119.45,-347.77 294.87,-400.02l-1481.86 0c175.43,52.25 294.88,217.12 294.88,400.02l0 1812.83c0,182.9 -119.45,347.76 -294.88,400.02z"/>
     <path class="fil1" d="M4211.72 0c136.33,0 268.9,16.1 395.97,46.3 -751.36,178.57 -1310.26,853.94 -1310.26,1659.94 0,805.98 558.9,1481.36 1310.26,1659.93 -127.08,30.21 -259.64,46.3 -395.97,46.3 -942.32,0 -1706.23,-763.91 -1706.23,-1706.23 0,-942.32 763.91,-1706.24 1706.23,-1706.24z"/>
     <path class="fil0" d="M-0 3055.13l2232.12 0 0 -1027.72c-126.92,370.15 -522.58,650.72 -1183.25,650.72l-130.64 -18.67c324.74,0 582.29,-422.41 582.29,-908.9 0,-490.22 -257.55,-908.9 -582.29,-908.9l130.64 -22.39c660.67,0 1056.33,280.56 1183.25,654.46l0 -1031.45 -2232.12 0c175.43,52.25 294.88,216.49 294.88,399.39l0 1814.06c0,182.9 -119.45,347.14 -294.88,399.4z"/>
     <path class="fil0" d="M13037.58 3055.13l2232.12 0 0 -1027.72c-126.92,370.15 -522.58,650.72 -1183.25,650.72l-130.64 -18.67c324.74,0 582.29,-422.41 582.29,-908.9 0,-490.22 -257.55,-908.9 -582.29,-908.9l130.64 -22.39c660.67,0 1056.33,280.56 1183.25,654.46l0 -1031.45 -2232.12 0c175.43,52.25 294.88,216.49 294.88,399.39l0 1814.06c0,182.9 -119.45,347.14 -294.88,399.4z"/>
     <path class="fil0" d="M11722.56 2911.31c-757.72,0 -970.49,-656.93 -974.23,-656.93l-63.45 698c18.66,11.2 455.37,138.1 1037.67,138.1 1045.15,0 1325.08,-373.26 1325.08,-780.13 0,-593.49 -537.5,-809.99 -918.23,-1022.74 -171.7,-93.32 -586.03,-283.68 -586.03,-507.64 0,-115.72 130.64,-186.64 380.73,-186.64 806.26,0 910.77,656.95 914.5,656.95l209.02 -655.27c-555.15,-212.63 -1048.13,-303.2 -1640.45,-168.62 -533.82,121.31 -755.91,434 -755.91,738.03 0,649.48 530.04,865.98 910.77,1071.28 160.51,85.84 593.5,246.34 593.5,455.37 0,115.72 -100.78,220.23 -432.98,220.23z"/>
     <path class="fil0" d="M7926.95 442.28c175.42,52.26 294.87,216.49 294.87,400.01l0 1813.46c0,182.89 -119.45,347.13 -294.87,399.39l1481.85 0c-175.42,-52.25 -294.87,-216.49 -294.87,-399.39l0 -173.59 0 -49.64 399.52 0c582.22,0 912.99,-324.21 963.6,-747.69 21.67,-182.01 23.39,-462.16 -29.47,-641.88 -102.49,-348.28 -420.48,-600.67 -934.14,-600.67l-1586.5 0zm1186.98 1811.08l0 -36.95c0,-531.65 0,-1063.31 0,-1594.96l29.99 0c261.65,0 432.83,281.89 450.17,623.61 0,107.78 1.48,215.8 1.48,323.35 0,370.78 -175.46,684.94 -451.65,684.94l-29.99 0z"/>
    </g>
   </g>
   <path class="fil1" d="M4220.03 1343.94c-40.21,-11.75 -82.86,-17.71 -127.03,-16.94 -241.46,4.15 -437.21,207.45 -437.21,454.11 0,39.69 5.06,78.1 14.59,114.57 14.96,57.35 40.91,109.94 75.42,155.34 16.26,21.39 34.4,41.18 54.22,59.1 233.19,-109.76 516.61,-397.89 632.2,-624.13 -20.2,-24.98 -43.05,-47.62 -68.11,-67.46 -42.38,-33.51 -91.12,-59.09 -144.07,-74.58zm-194.75 809.24c-110.06,63.52 -219.05,111.48 -310.95,138.99l-83.17 24.91 74.59 -44.43c124.88,-74.39 269.48,-165.81 404.1,-272.19 134.32,-106.18 258.95,-227.39 344.41,-361.72 13.83,-21.72 56.26,-90.62 81.67,-155.29 10.91,-27.79 18.65,-54.58 19.33,-75.88 0.58,-18.29 -4.13,-32.17 -17.02,-37.9 -3.73,-1.6 -8.19,-2.74 -13.33,-3.25 -36.87,-3.63 -87.72,11.06 -87.84,11.09l-29.01 7.24 17.72 -24.03c53.97,-73.22 108.4,-111.55 152.74,-120.39 22.03,-4.39 41.87,-1.68 58.35,7.51 16.42,9.17 29.19,24.67 37.07,45.8 15.92,42.63 11.96,109.57 -22.13,194.79 -29.63,74.09 -76.04,156.08 -135.74,237.31 -55.81,75.93 -123.26,151.29 -199.46,218.97 -89.95,79.89 -191.11,150.65 -291.35,208.47zm-10.78 102.93c31.78,9.73 64.99,16.15 99.19,18.75 246.14,18.75 451.12,-166 457.84,-412.65 0.79,-28.97 -1.19,-57.47 -5.69,-85.31 -31.89,43.18 -68.69,87.39 -109.76,131.59 -90.3,97.16 -193.55,186.45 -302.69,261.92 -47.05,32.5 -93.68,61.18 -138.89,85.7z"/>
  </g>
 </g>
</svg>
