<?xml version="1.0" standalone="no"?>
<!DOCTYPE svg PUBLIC "-//W3C//DTD SVG 1.1//EN" "http://www.w3.org/Graphics/SVG/1.1/DTD/svg11.dtd">
<svg xmlns="http://www.w3.org/2000/svg" xmlns:xlink="http://www.w3.org/1999/xlink" xmlns:xodm="http://www.corel.com/coreldraw/odm/2003" xml:space="preserve" width="10593.26953125" height="6941.89013671875" version="1.1" style="shape-rendering:geometricPrecision; text-rendering:geometricPrecision; image-rendering:optimizeQuality; fill-rule:evenodd; clip-rule:evenodd" viewBox="0 0 10593.27 6941.89">
 <defs>
  <style type="text/css">
   <![CDATA[
    .fil1 {fill:white}
    .fil0 {fill:white;fill-rule:nonzero}
   ]]>
  </style>
 </defs>
 <g id="Capa_x0020_1">
  <metadata id="CorelCorpID_0Corel-Layer"/>
  <path class="fil0" d="M-0 6530.37l5135.22 0 0 -2364.38c-291.97,851.58 -1202.22,1497.06 -2722.19,1497.06l-300.56 -42.94c747.11,0 1339.63,-971.8 1339.63,-2091.02 0,-1127.8 -592.52,-2091.01 -1339.63,-2091.01l300.56 -51.53c1519.97,0 2430.22,645.49 2722.19,1505.65l0 -2372.96 -5135.22 0c403.6,120.22 678.39,498.06 678.39,918.84l0 4173.45c0,420.78 -274.79,798.62 -678.39,918.85z"/>
  <path class="fil1" d="M8950.61 0c277.35,0 547.02,32.74 805.53,94.19 -1528.49,363.26 -2665.45,1737.16 -2665.45,3376.76 0,1639.59 1136.96,3013.5 2665.45,3376.75 -258.51,61.45 -528.18,94.19 -805.53,94.19 -1916.93,0 -3470.94,-1554.01 -3470.94,-3470.94 0,-1916.94 1554.01,-3470.95 3470.94,-3470.95z"/>
  <path class="fil1" d="M9408.85 2386.78c-105.27,-30.78 -216.97,-46.39 -332.66,-44.4 -632.42,10.86 -1145.07,543.33 -1145.07,1189.31 0,103.96 13.28,204.53 38.2,300.06 39.19,150.21 107.15,287.96 197.53,406.85 42.6,56.01 90.13,107.84 141.99,154.79 610.73,-287.48 1353,-1042.07 1655.74,-1634.63 -52.87,-65.43 -112.72,-124.72 -178.39,-176.66 -110.97,-87.78 -238.59,-154.75 -377.33,-195.32z"/>
  <path class="fil1" d="M8870.55 4775.76c83.26,25.51 170.21,42.29 259.78,49.11 644.65,49.1 1181.5,-434.76 1199.11,-1080.74 2.06,-75.84 -3.12,-150.52 -14.92,-223.4 -83.5,113.06 -179.88,228.9 -287.45,344.63 -236.48,254.43 -506.9,488.32 -792.78,685.96 -123.19,85.12 -245.33,160.24 -363.75,224.44z"/>
  <path class="fil1" d="M8076.4 4843.19c960.88,-287.66 2057.34,-1138.61 2437.18,-2088.49 252.81,-632.01 -141.73,-851.75 -543.12,-307.37 0,0 137.18,-39.83 239.68,-29.69 140.25,13.9 119.94,170.17 54.66,338.76 -353.94,913.64 -1401.24,1617.87 -2188.4,2086.79z"/>
 </g>
</svg>