<?xml version="1.0" standalone="no"?>
<!DOCTYPE svg PUBLIC "-//W3C//DTD SVG 1.1//EN" "http://www.w3.org/Graphics/SVG/1.1/DTD/svg11.dtd">
<svg xmlns="http://www.w3.org/2000/svg" xmlns:xlink="http://www.w3.org/1999/xlink" xmlns:xodm="http://www.corel.com/coreldraw/odm/2003" xml:space="preserve" width="10729.7197265625" height="7031.31005859375" version="1.1" style="shape-rendering:geometricPrecision; text-rendering:geometricPrecision; image-rendering:optimizeQuality; fill-rule:evenodd; clip-rule:evenodd" viewBox="0 0 10729.72 7031.31">
 <defs>
  <style type="text/css">
   <![CDATA[
    .fil1 { fill: black; }
    .fil0 { fill: black; fill-rule: nonzero; }

    @media (prefers-color-scheme: dark) {
      .fil1 { fill: white; }
      .fil0 { fill: white; }
    }
   ]]>
  </style>
 </defs>
    <g id="Capa_x0020_1">
  <metadata id="CorelCorpID_0Corel-Layer"/>
        <g id="_2650584281392">
   <path class="fil0" d="M-0 6614.49l5201.37 0 0 -2394.84c-295.73,862.55 -1217.71,1516.35 -2757.26,1516.35l-304.43 -43.5c756.73,0 1356.88,-984.32 1356.88,-2117.96 0,-1142.33 -600.15,-2117.95 -1356.88,-2117.95l304.43 -52.19c1539.55,0 2461.52,653.8 2757.26,1525.05l0 -2403.53 -5201.37 0c408.8,121.77 687.13,504.48 687.13,930.68l0 4227.21c0,426.2 -278.33,808.91 -687.13,930.69z"/>
            <path class="fil1" d="M9065.91 0c280.92,0 554.06,33.16 815.91,95.4 -1548.18,367.94 -2699.78,1759.53 -2699.78,3420.26 0,1660.71 1151.61,3052.32 2699.78,3420.25 -261.84,62.24 -534.99,95.4 -815.91,95.4 -1941.63,0 -3515.65,-1574.02 -3515.65,-3515.65 0,-1941.64 1574.02,-3515.66 3515.65,-3515.66z"/>
            <path class="fil1" d="M9530.05 2417.53c-106.63,-31.18 -219.77,-46.99 -336.95,-44.98 -640.57,11 -1159.82,550.33 -1159.82,1204.63 0,105.3 13.45,207.17 38.7,303.93 39.7,152.14 108.53,291.67 200.07,412.09 43.15,56.73 91.29,109.23 143.82,156.78 618.6,-291.18 1370.43,-1055.49 1677.07,-1655.68 -53.55,-66.27 -114.17,-126.33 -180.69,-178.93 -112.4,-88.91 -241.67,-156.74 -382.19,-197.84z"/>
            <path class="fil1" d="M8984.81 4837.28c84.33,25.84 172.4,42.84 263.12,49.75 652.95,49.74 1196.72,-440.36 1214.56,-1094.66 2.09,-76.81 -3.16,-152.45 -15.11,-226.28 -84.57,114.52 -182.2,231.85 -291.15,349.07 -239.53,257.7 -513.43,494.61 -802.99,694.8 -124.78,86.21 -248.49,162.3 -368.43,227.33z"/>
            <path class="fil1" d="M8180.43 4905.58c973.25,-291.36 2083.84,-1153.28 2468.57,-2115.39 256.06,-640.15 -143.56,-862.72 -550.12,-311.33 0,0 138.95,-40.35 242.77,-30.08 142.06,14.08 121.49,172.36 55.36,343.13 -358.49,925.41 -1419.29,1638.71 -2216.59,2113.67z"/>
  </g>
 </g>
</svg>